<svg xmlns="http://www.w3.org/2000/svg" width="36" height="37" viewBox="0 0 36 37" fill="none">
  <g clip-path="url(#clip0_26085_14365)">
    <path d="M36 17.7887C36 8.26304 27.9412 0.541016 18 0.541016C8.05887 0.541016 0 8.26304 0 17.7887C0 26.3973 6.58231 33.5328 15.1875 34.8268V22.7743H10.6172V17.7887H15.1875V13.9888C15.1875 9.6661 17.8749 7.27837 21.9863 7.27837C23.9558 7.27837 26.0156 7.61525 26.0156 7.61525V11.8598H23.746C21.51 11.8598 20.8125 13.1894 20.8125 14.5534V17.7887H25.8046L25.0067 22.7743H20.8125V34.8268C29.4178 33.5328 36 26.3976 36 17.7887Z" fill="#CA22C0"/>
  </g>
  <defs>
    <clipPath id="clip0_26085_14365">
      <rect width="36" height="36" fill="white" transform="translate(0 0.125)"/>
    </clipPath>
  </defs>
</svg>