<svg xmlns="http://www.w3.org/2000/svg" width="18" height="18" viewBox="0 0 18 18" fill="none">
  <path d="M11.7963 2.91294C12.872 1.83303 14.4456 1.81035 15.3167 2.68482C16.1894 3.56096 16.1659 5.14438 15.0894 6.22504L13.2716 8.04997C13.0523 8.27007 13.053 8.62622 13.2731 8.84546C13.4932 9.06471 13.8494 9.06402 14.0686 8.84392L15.8865 7.01899C17.3199 5.57995 17.4999 3.28246 16.1137 1.89087C14.7259 0.497633 12.4335 0.679217 10.9992 2.11899L7.36351 5.76883C5.93004 7.20787 5.75007 9.50539 7.13627 10.897C7.35551 11.1171 7.71167 11.1178 7.93176 10.8985C8.15186 10.6793 8.15255 10.3231 7.9333 10.103C7.06056 9.22689 7.08407 7.64344 8.16054 6.56279L11.7963 2.91294Z" fill="#CA22C0"/>
  <path d="M10.8637 7.10302C10.6445 6.88293 10.2883 6.88224 10.0682 7.10148C9.84811 7.32073 9.84742 7.67688 10.0667 7.89698C10.9394 8.77311 10.9159 10.3565 9.83943 11.4372L6.20371 15.0871C5.12797 16.167 3.55441 16.1897 2.68331 15.3152C1.81056 14.439 1.83407 12.8556 2.91055 11.7749L4.72843 9.94998C4.94767 9.72989 4.94698 9.37373 4.72689 9.15449C4.50679 8.93525 4.15064 8.93594 3.93139 9.15603L2.11351 10.981C0.680035 12.42 0.500065 14.7175 1.88627 16.1091C3.27413 17.5024 5.56654 17.3208 7.00075 15.881L10.6365 12.2311C12.0699 10.7921 12.2499 8.49461 10.8637 7.10302Z" fill="#CA22C0"/>
</svg>