<svg xmlns="http://www.w3.org/2000/svg" width="36" height="36" viewBox="0 0 36 36" fill="none">
  <path fill-rule="evenodd" clip-rule="evenodd" d="M18 36C27.9411 36 36 27.9411 36 18C36 8.05887 27.9411 0 18 0C8.05887 0 0 8.05887 0 18C0 27.9411 8.05887 36 18 36ZM8 18C8 12.4773 12.4773 8 18 8C23.5227 8 28 12.4773 28 18C28 23.5227 23.5227 28 18 28C12.4773 28 8 23.5227 8 18ZM26.1818 18C26.1818 13.4814 22.5186 9.81818 18 9.81818C13.4814 9.81818 9.81818 13.4814 9.81818 18C9.81818 22.5186 13.4814 26.1818 18 26.1818C22.5186 26.1818 26.1818 22.5186 26.1818 18ZM21.2644 14.2163C21.5886 14.0993 21.8787 14.036 22.1096 14.0627C22.1865 14.0716 22.2571 14.0903 22.32 14.1204C22.5277 14.2199 22.6337 14.4432 22.6014 14.7791C22.4955 15.8873 21.6331 21.5117 21.449 22.0758C21.2922 22.5576 21.1262 22.9734 20.8107 22.9734C20.4953 22.9734 20.1515 22.8636 19.812 22.6209C19.4724 22.3782 17.2177 20.8664 16.9045 20.6687C16.6299 20.4955 16.3391 20.0632 16.7482 19.646C16.9542 19.4361 17.9876 18.4298 18.8108 17.6283C19.3356 17.1173 19.775 16.6895 19.8599 16.6044C20.0781 16.3858 19.8648 16.1057 19.598 16.3239C19.3312 16.542 15.6074 19.0336 15.2852 19.234C14.9806 19.4231 14.4379 19.5376 13.9606 19.4062C13.4651 19.2694 12.6261 19.0158 12.2933 18.8967C11.9733 18.7826 11.8574 18.6722 11.8574 18.4767C11.8579 18.199 12.2503 18.0068 12.6644 17.8304C13.1017 17.6445 20.6721 14.4299 21.2644 14.2163Z" fill="#CA22C0"/>
</svg>