<svg xmlns="http://www.w3.org/2000/svg" width="36" height="36" viewBox="0 0 36 36" fill="none">
  <path fill-rule="evenodd" clip-rule="evenodd" d="M18 36C27.9411 36 36 27.9411 36 18C36 8.05887 27.9411 0 18 0C8.05887 0 0 8.05887 0 18C0 27.9411 8.05887 36 18 36ZM26.3119 8.55001L19.4768 16.5528L26.9113 27.45H21.4438L16.4366 20.1114L10.1699 27.45H8.54994L15.7184 19.0584L8.54994 8.55001H14.0174L18.7586 15.4985L24.6919 8.55001H26.3119ZM16.5325 18.104L17.2588 19.1502L22.2052 26.2782H24.6932L18.6304 17.5437L17.9041 16.4975L13.2412 9.77851H10.7531L16.5325 18.104Z" fill="#CA22C0"/>
</svg>