<svg xmlns="http://www.w3.org/2000/svg" width="36" height="36" viewBox="0 0 36 36" fill="none">
  <path fill-rule="evenodd" clip-rule="evenodd" d="M18 36C27.9411 36 36 27.9411 36 18C36 8.05887 27.9411 0 18 0C8.05887 0 0 8.05887 0 18C0 27.9411 8.05887 36 18 36ZM18.0423 8C20.7051 8 23.2051 9.0337 25.0866 10.9067C26.9648 12.7796 28 15.2683 28 17.9157C27.9967 23.3824 23.5306 27.8283 18.0423 27.8283H18.0391C16.3724 27.825 14.7318 27.4102 13.2799 26.6196L8 28L9.41276 22.8639C8.54037 21.3603 8.08138 19.6559 8.08464 17.9093C8.08464 12.4459 12.554 8 18.0423 8ZM18.0391 26.1529H18.0423C22.6029 26.1529 26.3171 22.4588 26.3171 17.9157C26.3171 15.7155 25.4577 13.6481 23.8952 12.0894C22.3327 10.534 20.2559 9.67531 18.0456 9.67531C13.4785 9.67531 9.76432 13.3694 9.76432 17.9093C9.76432 19.4647 10.2005 20.9812 11.0306 22.2936L11.2259 22.6047L10.3893 25.6442L13.5241 24.8276L13.8268 25.0058C15.0964 25.7544 16.5547 26.1529 18.0391 26.1529ZM20.8809 19.1795C21.1087 19.2605 22.3327 19.86 22.5801 19.9832C22.6313 20.009 22.6789 20.0321 22.7229 20.0534C22.8942 20.1364 23.0094 20.1923 23.0586 20.2748C23.1204 20.3785 23.1204 20.8743 22.9154 21.4511C22.707 22.0311 21.7142 22.5593 21.2357 22.6306C20.806 22.6922 20.2624 22.7181 19.6667 22.5301C19.3053 22.4167 18.8431 22.2644 18.2507 22.0084C15.927 21.0102 14.3534 18.7742 14.0466 18.3384C14.0237 18.3059 14.0079 18.2834 13.9993 18.2722L13.9957 18.2674C13.8593 18.0851 12.9837 16.9162 12.9837 15.709C12.9837 14.5649 13.5492 13.9665 13.8068 13.6939C13.8235 13.6762 13.839 13.6599 13.8529 13.6448C14.0807 13.3953 14.3509 13.3338 14.5169 13.3338C14.6829 13.3338 14.849 13.3338 14.9922 13.3402C15.0111 13.3414 15.0309 13.3415 15.0513 13.3415C15.1959 13.3416 15.3752 13.3417 15.5521 13.7647C15.6281 13.9457 15.7428 14.2234 15.8607 14.5091C16.0659 15.006 16.281 15.5271 16.3203 15.6053C16.3822 15.7285 16.4245 15.8743 16.3431 16.0395C16.3299 16.0653 16.3177 16.0897 16.3061 16.1129C16.2433 16.2381 16.1968 16.3308 16.0924 16.4511C16.0564 16.4935 16.0193 16.5387 15.982 16.5842C15.8911 16.6949 15.7989 16.8072 15.7181 16.8853C15.5944 17.0084 15.4642 17.1413 15.6107 17.3908C15.7539 17.6371 16.2552 18.4504 16.9941 19.105C17.7946 19.8173 18.489 20.1158 18.8379 20.2659C18.9033 20.294 18.9565 20.3169 18.9961 20.3364C19.2435 20.4595 19.39 20.4368 19.5332 20.2748C19.6797 20.1095 20.1549 19.5522 20.321 19.3027C20.487 19.0564 20.653 19.0953 20.8809 19.1795Z" fill="#CA22C0"/>
</svg>